<svg xmlns="http://www.w3.org/2000/svg" viewBox="0 0 312 312">
  <g transform="translate(18,18)">
    <path fill="none" d="M153.55,140.21h118.9v-1.9c0-5.2-.3-10.3-.9-15.4h-51.2l.4-30h0c0-13.5-4.2-26.2-11.7-35.8-3.8-4.9-8.3-8.7-13.4-11.4-5.4-2.9-11.2-4.4-17.1-4.4s-11.7,1.5-17.1,4.4c-5,2.7-9.5,6.6-13.4,11.4-7.5,9.6-11.7,22.3-11.7,35.7v30.1h-7l.4-30h0c0-13.5-4.2-26.2-11.7-35.8-3.8-4.9-8.3-8.7-13.4-11.4-5.4-2.9-11.2-4.4-17.1-4.4s-11.7,1.5-17.1,4.4c-5,2.7-9.5,6.6-13.4,11.4-7.5,9.6-11.7,22.3-11.7,35.7v129h-13.1c3.2,4.1,6.7,8,10.4,11.7,1.9,1.9,3.9,3.8,6,5.6h178.4c2-1.8,4-3.7,6-5.6,3.7-3.7,7.1-7.6,10.4-11.7h-89.9v-81.6ZM153.55,92.91c0-4.8.7-9.5,2.2-13.9,1.4-4.1,3.3-7.8,5.8-11,4.7-6,10.8-9.3,17.1-9.3s12.4,3.3,17.1,9.3c2.5,3.1,4.4,6.8,5.8,11,1.5,4.4,2.2,9,2.2,13.9l-.4,30.2h-49.8v-30.2h0ZM62.65,92.91c0-4.8.7-9.5,2.2-13.9,1.4-4.1,3.3-7.8,5.8-11,4.7-6,10.8-9.3,17.1-9.3s12.4,3.3,17.1,9.3c2.5,3.1,4.4,6.8,5.8,11,1.5,4.4,2.2,9,2.2,13.9l-.4,30.2h-49.8s0-30.2,0-30.2ZM136.45,221.81H62.65v-81.6h73.8v81.6h0Z"/>
    <path fill="#fff" d="M203.65,92.81c0-4.8-.7-9.5-2.2-13.9-1.4-4.1-3.3-7.8-5.8-11-4.7-6-10.8-9.3-17.1-9.3s-12.4,3.3-17.1,9.3c-2.5,3.1-4.4,6.8-5.8,11-1.5,4.4-2.2,9.1-2.2,13.9v30.1h49.8l.4-30.2v.1h0Z"/>
    <path fill="#fff" d="M62.65,249.91c7.2,4.9,14.9,9,22.9,12.4,16.6,7,34.2,10.6,52.4,10.6s35.8-3.6,52.4-10.6c8-3.4,15.7-7.5,22.9-12.4,4.9-3.3,9.5-6.9,14-10.8H48.75c4.4,3.9,9.1,7.5,14,10.8h-.1Z"/>
    <path fill="#fff" d="M112.75,92.81c0-4.8-.7-9.5-2.2-13.9-1.4-4.1-3.3-7.8-5.8-11-4.7-6-10.8-9.3-17.1-9.3s-12.4,3.3-17.1,9.3c-2.5,3.1-4.4,6.8-5.8,11-1.5,4.4-2.2,9.1-2.2,13.9v30.1h49.8l.4-30.2s0,.1,0,.1Z"/>
    <path fill="#fff" d="M45.55,92.91c0-13.4,4.2-26.1,11.7-35.7,3.8-4.9,8.3-8.7,13.4-11.4,5.4-2.9,11.2-4.4,17.1-4.4s11.7,1.5,17.1,4.4c5,2.7,9.5,6.6,13.4,11.4,7.5,9.6,11.7,22.3,11.7,35.7h0c0,.1-.4,30.1-.4,30.1h7v-30.1c0-13.4,4.2-26.1,11.7-35.7,3.8-4.9,8.3-8.7,13.4-11.4,5.4-2.9,11.2-4.4,17.1-4.4s11.7,1.5,17.1,4.4c5,2.7,9.5,6.6,13.4,11.4,7.5,9.6,11.7,22.3,11.7,35.7h0c0,.1-.4,30.1-.4,30.1h51.2c-1.4-12.7-4.7-25.1-9.7-37-3.4-8-7.5-15.7-12.4-22.9-4.8-7.1-10.3-13.8-16.4-19.9-6.1-6.1-12.8-11.6-19.9-16.4-7.2-4.9-14.9-9-22.9-12.4-16.6-7-34.2-10.6-52.4-10.6s-35.8,3.6-52.4,10.6c-8,3.4-15.7,7.5-22.9,12.4-7.1,4.8-13.8,10.3-19.9,16.4-6.1,6.1-11.6,12.8-16.4,19.9-4.9,7.2-9,14.9-12.4,22.9-7.1,16.5-10.7,34.2-10.7,52.3s3.6,35.8,10.6,52.4c3.4,8,7.5,15.7,12.4,22.9,1.9,2.8,3.9,5.6,6.1,8.3h13.1V92.91Z"/>
    <path fill="#fff" d="M261.95,190.71c6.8-16,10.3-33,10.5-50.5h-118.9v81.6h89.9c2.1-2.7,4.2-5.4,6.1-8.3,4.9-7.2,9-14.9,12.4-22.9v.1h0Z"/>
    <rect fill="#fff" x="62.65" y="140.21" width="73.8" height="81.6"/>
  </g>
</svg>
