<svg xmlns="http://www.w3.org/2000/svg" viewBox="0 0 312 312">
  <path fill="#000" d="M306.3,125.42c-2-9.8-5-19.5-8.9-28.7-3.8-9.1-8.6-17.8-14.1-26-5.5-8.1-11.7-15.7-18.7-22.6-6.9-6.9-14.5-13.2-22.6-18.7-8.2-5.5-16.9-10.3-26-14.1-9.2-3.9-18.9-6.9-28.7-8.9-10.1-2.1-20.4-3.1-30.8-3.1s-20.7,1-30.8,3.1c-9.8,2-19.5,5-28.7,8.9-9.1,3.8-17.8,8.6-26,14.1-8.1,5.5-15.7,11.7-22.6,18.7-6.9,6.9-13.2,14.5-18.7,22.6-5.5,8.2-10.3,16.9-14.1,26-3.9,9.2-6.9,18.9-8.9,28.7-2.1,10.1-3.1,20.4-3.1,30.8s1,20.7,3.1,30.8c2,9.8,5,19.5,8.9,28.7,3.8,9.1,8.6,17.8,14.1,26,5.5,8.1,11.7,15.7,18.7,22.6,6.9,6.9,14.5,13.2,22.6,18.7,8.2,5.5,16.9,10.3,26,14.1,9.2,3.9,18.9,6.9,28.7,8.9,10.1,2.1,20.4,3.1,30.8,3.1s20.7-1,30.8-3.1c9.8-2,19.5-5,28.7-8.9,9.1-3.8,17.8-8.6,26-14.1,8.1-5.5,15.7-11.7,22.6-18.7,6.9-6.9,13.2-14.5,18.7-22.6,5.5-8.2,10.3-16.9,14.1-26,3.9-9.2,6.9-18.9,8.9-28.7,2.1-10.1,3.1-20.4,3.1-30.8s-1-20.7-3.1-30.8h0ZM20.9,156.22c0-18.3,3.8-36,10.8-52.7,3.4-8,7.6-15.8,12.5-23,4.8-7.2,10.4-13.9,16.5-20.1,6.1-6.1,12.9-11.7,20.1-16.5,7.2-4.9,15-9.1,23-12.5,16.7-7.1,34.4-10.6,52.7-10.6s36,3.6,52.7,10.6c8,3.4,15.8,7.6,23,12.5,7.2,4.8,13.9,10.4,20.1,16.5,6.1,6.1,11.7,12.9,16.5,20.1,4.9,7.2,9.1,15,12.5,23,5.1,11.9,8.3,24.4,9.8,37.3h-50.6l.4-30.1h0c0-13.6-4.2-26.3-11.8-35.9-3.8-4.9-8.4-8.8-13.4-11.5-5.4-2.9-11.2-4.4-17.2-4.4s-11.8,1.5-17.2,4.4c-5.1,2.7-9.6,6.6-13.4,11.5-7.6,9.7-11.8,22.4-11.8,35.8v30.2h-7l.4-30.1h0c0-13.6-4.2-26.3-11.8-35.9-3.8-4.9-8.4-8.8-13.4-11.5-5.4-2.9-11.2-4.4-17.2-4.4s-11.8,1.5-17.2,4.4c-5.1,2.7-9.6,6.6-13.4,11.5-7.6,9.7-11.8,22.4-11.8,35.8v129.5h-14.6c-2.1-2.6-4.2-5.3-6.1-8.2-4.9-7.2-9.1-15-12.5-23-7.1-16.7-10.6-34.4-10.6-52.7h-.05.05ZM223.4,140.82h-50v-30.2c0-4.9.7-9.6,2.2-14,1.4-4.2,3.3-7.9,5.8-11,4.7-6,10.8-9.3,17.2-9.3s12.4,3.3,17.2,9.3c2.5,3.2,4.4,6.9,5.8,11,1.5,4.4,2.2,9.1,2.2,13.9l-.4,30.3ZM132.1,140.82h-50v-30.2c0-4.9.7-9.6,2.2-14,1.4-4.2,3.3-7.9,5.8-11,4.7-6,10.8-9.3,17.2-9.3s12.4,3.3,17.2,9.3c2.5,3.2,4.4,6.9,5.8,11,1.5,4.4,2.2,9.1,2.2,13.9l-.4,30.3ZM82.1,240.02v-81.8h74.1v81.3l-74.1.6h0v-.1ZM281.4,208.92c-3.4,8-7.6,15.8-12.5,23-1.5,2.3-3.1,4.5-4.8,6.6l-90.7.7v-81.2h118.6c-.2,17.6-3.8,34.7-10.6,50.8h0v.1h0Z"/>
</svg>