<svg xmlns="http://www.w3.org/2000/svg" version="1.1" xmlns:xlink="http://www.w3.org/1999/xlink" width="1000" height="1000"><style>
    #light-icon {
      display: inline;
    }
    #dark-icon {
      display: none;
    }

    @media (prefers-color-scheme: dark) {
      #light-icon {
        display: none;
      }
      #dark-icon {
        display: inline;
      }
    }
  </style><g id="light-icon"><svg xmlns="http://www.w3.org/2000/svg" version="1.1" xmlns:xlink="http://www.w3.org/1999/xlink" width="1000" height="1000"><g><g transform="matrix(3.2051282051282053,0,0,3.2051282051282053,0,0)"><svg xmlns="http://www.w3.org/2000/svg" version="1.1" id="Layer_1" viewBox="0 0 312 312" width="312" height="312"><path d="M306.3,125.42c-2-9.8-5-19.5-8.9-28.7-3.8-9.1-8.6-17.8-14.1-26-5.5-8.1-11.7-15.7-18.7-22.6-6.9-6.9-14.5-13.2-22.6-18.7-8.2-5.5-16.9-10.3-26-14.1-9.2-3.9-18.9-6.9-28.7-8.9-10.1-2.1-20.4-3.1-30.8-3.1s-20.7,1-30.8,3.1c-9.8,2-19.5,5-28.7,8.9-9.1,3.8-17.8,8.6-26,14.1-8.1,5.5-15.7,11.7-22.6,18.7-6.9,6.9-13.2,14.5-18.7,22.6-5.5,8.2-10.3,16.9-14.1,26-3.9,9.2-6.9,18.9-8.9,28.7-2.1,10.1-3.1,20.4-3.1,30.8s1,20.7,3.1,30.8c2,9.8,5,19.5,8.9,28.7,3.8,9.1,8.6,17.8,14.1,26,5.5,8.1,11.7,15.7,18.7,22.6,6.9,6.9,14.5,13.2,22.6,18.7,8.2,5.5,16.9,10.3,26,14.1,9.2,3.9,18.9,6.9,28.7,8.9,10.1,2.1,20.4,3.1,30.8,3.1s20.7-1,30.8-3.1c9.8-2,19.5-5,28.7-8.9,9.1-3.8,17.8-8.6,26-14.1,8.1-5.5,15.7-11.7,22.6-18.7,6.9-6.9,13.2-14.5,18.7-22.6,5.5-8.2,10.3-16.9,14.1-26,3.9-9.2,6.9-18.9,8.9-28.7,2.1-10.1,3.1-20.4,3.1-30.8s-1-20.7-3.1-30.8h0ZM20.9,156.22c0-18.3,3.8-36,10.8-52.7,3.4-8,7.6-15.8,12.5-23,4.8-7.2,10.4-13.9,16.5-20.1,6.1-6.1,12.9-11.7,20.1-16.5,7.2-4.9,15-9.1,23-12.5,16.7-7.1,34.4-10.6,52.7-10.6s36,3.6,52.7,10.6c8,3.4,15.8,7.6,23,12.5,7.2,4.8,13.9,10.4,20.1,16.5,6.1,6.1,11.7,12.9,16.5,20.1,4.9,7.2,9.1,15,12.5,23,5.1,11.9,8.3,24.4,9.8,37.3h-50.6l.4-30.1h0c0-13.6-4.2-26.3-11.8-35.9-3.8-4.9-8.4-8.8-13.4-11.5-5.4-2.9-11.2-4.4-17.2-4.4s-11.8,1.5-17.2,4.4c-5.1,2.7-9.6,6.6-13.4,11.5-7.6,9.7-11.8,22.4-11.8,35.8v30.2h-7l.4-30.1h0c0-13.6-4.2-26.3-11.8-35.9-3.8-4.9-8.4-8.8-13.4-11.5-5.4-2.9-11.2-4.4-17.2-4.4s-11.8,1.5-17.2,4.4c-5.1,2.7-9.6,6.6-13.4,11.5-7.6,9.7-11.8,22.4-11.8,35.8v129.5h-14.6c-2.1-2.6-4.2-5.3-6.1-8.2-4.9-7.2-9.1-15-12.5-23-7.1-16.7-10.6-34.4-10.6-52.7h-.05.05ZM223.4,140.82h-50v-30.2c0-4.9.7-9.6,2.2-14,1.4-4.2,3.3-7.9,5.8-11,4.7-6,10.8-9.3,17.2-9.3s12.4,3.3,17.2,9.3c2.5,3.2,4.4,6.9,5.8,11,1.5,4.4,2.2,9.1,2.2,13.9l-.4,30.3ZM132.1,140.82h-50v-30.2c0-4.9.7-9.6,2.2-14,1.4-4.2,3.3-7.9,5.8-11,4.7-6,10.8-9.3,17.2-9.3s12.4,3.3,17.2,9.3c2.5,3.2,4.4,6.9,5.8,11,1.5,4.4,2.2,9.1,2.2,13.9l-.4,30.3ZM82.1,240.02v-81.8h74.1v81.3l-74.1.6h0v-.1ZM281.4,208.92c-3.4,8-7.6,15.8-12.5,23-1.5,2.3-3.1,4.5-4.8,6.6l-90.7.7v-81.2h118.6c-.2,17.6-3.8,34.7-10.6,50.8h0v.1h0Z"></path></svg></g></g></svg></g><g id="dark-icon"><svg xmlns="http://www.w3.org/2000/svg" version="1.1" xmlns:xlink="http://www.w3.org/1999/xlink" width="1000" height="1000"><g><g transform="matrix(3.6231884057971016,0,0,3.6231884057971016,0,0)"><svg xmlns="http://www.w3.org/2000/svg" version="1.1" id="Layer_1" viewBox="0 0 276 276" width="276" height="276"><defs>
    <style>
      .st0 {
        fill: #fff;
      }

      .st1 {
        fill: none;
      }
    </style>
  </defs><path class="st1" d="M153.55,140.21h118.9v-1.9c0-5.2-.3-10.3-.9-15.4h-51.2l.4-30h0c0-13.5-4.2-26.2-11.7-35.8-3.8-4.9-8.3-8.7-13.4-11.4-5.4-2.9-11.2-4.4-17.1-4.4s-11.7,1.5-17.1,4.4c-5,2.7-9.5,6.6-13.4,11.4-7.5,9.6-11.7,22.3-11.7,35.7v30.1h-7l.4-30h0c0-13.5-4.2-26.2-11.7-35.8-3.8-4.9-8.3-8.7-13.4-11.4-5.4-2.9-11.2-4.4-17.1-4.4s-11.7,1.5-17.1,4.4c-5,2.7-9.5,6.6-13.4,11.4-7.5,9.6-11.7,22.3-11.7,35.7v129h-13.1c3.2,4.1,6.7,8,10.4,11.7,1.9,1.9,3.9,3.8,6,5.6h178.4c2-1.8,4-3.7,6-5.6,3.7-3.7,7.1-7.6,10.4-11.7h-89.9v-81.6ZM153.55,92.91c0-4.8.7-9.5,2.2-13.9,1.4-4.1,3.3-7.8,5.8-11,4.7-6,10.8-9.3,17.1-9.3s12.4,3.3,17.1,9.3c2.5,3.1,4.4,6.8,5.8,11,1.5,4.4,2.2,9,2.2,13.9l-.4,30.2h-49.8v-30.2h0ZM62.65,92.91c0-4.8.7-9.5,2.2-13.9,1.4-4.1,3.3-7.8,5.8-11,4.7-6,10.8-9.3,17.1-9.3s12.4,3.3,17.1,9.3c2.5,3.1,4.4,6.8,5.8,11,1.5,4.4,2.2,9,2.2,13.9l-.4,30.2h-49.8s0-30.2,0-30.2ZM136.45,221.81H62.65v-81.6h73.8v81.6h0Z"></path><path class="st0" d="M203.65,92.81c0-4.8-.7-9.5-2.2-13.9-1.4-4.1-3.3-7.8-5.8-11-4.7-6-10.8-9.3-17.1-9.3s-12.4,3.3-17.1,9.3c-2.5,3.1-4.4,6.8-5.8,11-1.5,4.4-2.2,9.1-2.2,13.9v30.1h49.8l.4-30.2v.1h0Z"></path><path class="st0" d="M62.65,249.91c7.2,4.9,14.9,9,22.9,12.4,16.6,7,34.2,10.6,52.4,10.6s35.8-3.6,52.4-10.6c8-3.4,15.7-7.5,22.9-12.4,4.9-3.3,9.5-6.9,14-10.8H48.75c4.4,3.9,9.1,7.5,14,10.8h-.1Z"></path><path class="st0" d="M112.75,92.81c0-4.8-.7-9.5-2.2-13.9-1.4-4.1-3.3-7.8-5.8-11-4.7-6-10.8-9.3-17.1-9.3s-12.4,3.3-17.1,9.3c-2.5,3.1-4.4,6.8-5.8,11-1.5,4.4-2.2,9.1-2.2,13.9v30.1h49.8l.4-30.2s0,.1,0,.1Z"></path><path class="st0" d="M45.55,92.91c0-13.4,4.2-26.1,11.7-35.7,3.8-4.9,8.3-8.7,13.4-11.4,5.4-2.9,11.2-4.4,17.1-4.4s11.7,1.5,17.1,4.4c5,2.7,9.5,6.6,13.4,11.4,7.5,9.6,11.7,22.3,11.7,35.7h0c0,.1-.4,30.1-.4,30.1h7v-30.1c0-13.4,4.2-26.1,11.7-35.7,3.8-4.9,8.3-8.7,13.4-11.4,5.4-2.9,11.2-4.4,17.1-4.4s11.7,1.5,17.1,4.4c5,2.7,9.5,6.6,13.4,11.4,7.5,9.6,11.7,22.3,11.7,35.7h0c0,.1-.4,30.1-.4,30.1h51.2c-1.4-12.7-4.7-25.1-9.7-37-3.4-8-7.5-15.7-12.4-22.9-4.8-7.1-10.3-13.8-16.4-19.9-6.1-6.1-12.8-11.6-19.9-16.4-7.2-4.9-14.9-9-22.9-12.4-16.6-7-34.2-10.6-52.4-10.6s-35.8,3.6-52.4,10.6c-8,3.4-15.7,7.5-22.9,12.4-7.1,4.8-13.8,10.3-19.9,16.4-6.1,6.1-11.6,12.8-16.4,19.9-4.9,7.2-9,14.9-12.4,22.9-7.1,16.5-10.7,34.2-10.7,52.3s3.6,35.8,10.6,52.4c3.4,8,7.5,15.7,12.4,22.9,1.9,2.8,3.9,5.6,6.1,8.3h13.1V92.91Z"></path><path class="st0" d="M261.95,190.71c6.8-16,10.3-33,10.5-50.5h-118.9v81.6h89.9c2.1-2.7,4.2-5.4,6.1-8.3,4.9-7.2,9-14.9,12.4-22.9v.1h0Z"></path><rect class="st0" x="62.65" y="140.21" width="73.8" height="81.6"></rect><polygon points="25.65 221.81 25.75 221.81 25.65 221.81 25.65 221.81"></polygon></svg></g></g></svg></g></svg>